<?xml version="1.0" encoding="UTF-8"?>
<!-- Generator: Adobe Illustrator 23.0.3, SVG Export Plug-In . SVG Version: 6.00 Build 0)  -->
<svg version="1.1" id="Layer_1" xmlns="http://www.w3.org/2000/svg" xmlns:xlink="http://www.w3.org/1999/xlink" x="0px" y="0px" viewBox="0 0 288.86 228.76" style="enable-background:new 0 0 288.86 228.76;" xml:space="preserve">
<style type="text/css">
	.st0{fill:#231F20;}
	.st1{fill:#FF5F00;}
	.st2{fill:#EB001B;}
	.st3{fill:#F79E1B;}
</style>
<path class="st0" d="M62.44,215.44c0.08-1.42,0.57-2.79,1.41-3.93c0.83-1.14,1.98-2.01,3.29-2.5s2.74-0.57,4.1-0.25  c1.36,0.33,2.6,1.05,3.56,2.08c0.96,1.03,1.6,2.33,1.85,3.73s0.09,2.84-0.46,4.15s-1.46,2.43-2.63,3.21  c-1.16,0.79-2.53,1.21-3.93,1.22c-0.99,0.02-1.97-0.17-2.88-0.56s-1.73-0.96-2.41-1.69c-0.68-0.73-1.21-1.59-1.54-2.53  s-0.48-1.95-0.41-2.95h0.05V215.44z M81.64,215.44v-12.07h-5.16v2.93c-0.88-1.15-2.01-2.07-3.3-2.68c-1.29-0.61-2.71-0.91-4.14-0.85  c-3.29,0-6.44,1.33-8.77,3.7s-3.63,5.58-3.63,8.93s1.31,6.56,3.63,8.93c2.33,2.37,5.48,3.7,8.77,3.7c1.43,0.05,2.84-0.24,4.14-0.85  c1.29-0.61,2.42-1.53,3.3-2.68v2.93h5.16V215.44z M255.78,215.44c0.08-1.42,0.57-2.79,1.41-3.93c0.83-1.14,1.98-2.01,3.29-2.5  s2.74-0.57,4.1-0.25c1.36,0.33,2.6,1.05,3.56,2.08s1.6,2.33,1.85,3.73s0.09,2.84-0.46,4.15s-1.46,2.43-2.63,3.21  c-1.16,0.79-2.53,1.21-3.93,1.22c-0.98,0.01-1.96-0.18-2.86-0.57c-0.9-0.39-1.72-0.96-2.4-1.69s-1.2-1.59-1.53-2.53  C255.85,217.43,255.71,216.43,255.78,215.44z M283.05,225.69v0.61h0.55c0.1,0.03,0.2,0.03,0.3,0c0.02-0.04,0.03-0.07,0.03-0.11  s-0.01-0.08-0.03-0.11c0.02-0.04,0.03-0.07,0.03-0.11s-0.01-0.08-0.03-0.11c-0.1-0.03-0.2-0.03-0.3,0L283.05,225.69z M283.6,225.26  c0.23-0.01,0.46,0.06,0.64,0.2c0.08,0.06,0.14,0.15,0.17,0.24c0.04,0.09,0.06,0.19,0.05,0.29c0,0.08-0.01,0.17-0.04,0.25  s-0.08,0.15-0.13,0.21c-0.14,0.13-0.33,0.21-0.52,0.23l0.72,0.83h-0.57l-0.67-0.83h-0.22v0.83h-0.47v-2.22L283.6,225.26z   M283.45,228.26c0.25,0,0.49-0.05,0.72-0.15c0.21-0.1,0.41-0.23,0.57-0.4c0.31-0.34,0.48-0.79,0.48-1.26s-0.17-0.92-0.48-1.26  c-0.16-0.17-0.36-0.31-0.57-0.4c-0.23-0.1-0.47-0.15-0.72-0.15s-0.49,0.05-0.72,0.15c-0.22,0.09-0.43,0.23-0.6,0.4  c-0.31,0.34-0.48,0.79-0.48,1.26s0.17,0.92,0.48,1.26c0.17,0.17,0.37,0.31,0.6,0.4c0.25,0.11,0.52,0.16,0.79,0.15H283.45z   M283.45,223.99c0.32,0,0.64,0.06,0.94,0.18c0.28,0.12,0.55,0.29,0.77,0.51s0.39,0.47,0.52,0.76c0.13,0.29,0.19,0.61,0.19,0.93  s-0.06,0.64-0.19,0.93c-0.13,0.28-0.3,0.54-0.52,0.76s-0.48,0.39-0.77,0.5c-0.3,0.13-0.62,0.2-0.94,0.2c-0.47,0-0.93-0.14-1.32-0.4  s-0.71-0.63-0.91-1.06c-0.12-0.3-0.19-0.61-0.19-0.93s0.06-0.64,0.19-0.93c0.13-0.28,0.3-0.54,0.52-0.76s0.48-0.39,0.77-0.51  c0.32-0.13,0.67-0.19,1.02-0.18H283.45z M274.84,215.44v-21.76h-4.96v12.62c-0.88-1.15-2.01-2.07-3.3-2.68  c-1.29-0.61-2.71-0.91-4.14-0.85c-3.29,0-6.44,1.33-8.77,3.7c-2.32,2.37-3.63,5.58-3.63,8.93c0,3.35,1.31,6.56,3.63,8.93  c2.33,2.37,5.48,3.7,8.77,3.7c1.43,0.05,2.84-0.24,4.14-0.85c1.29-0.61,2.42-1.53,3.3-2.68v2.93h4.96V215.44z M145.63,207.46  c0.77-0.02,1.54,0.12,2.26,0.41s1.38,0.71,1.93,1.26s1,1.19,1.31,1.91s0.48,1.49,0.49,2.28h-12.4c0.09-1.62,0.8-3.14,1.98-4.24  s2.73-1.68,4.32-1.62H145.63z M145.63,202.76c-3.29,0.05-6.42,1.42-8.72,3.82s-3.55,5.63-3.51,8.98c0.05,3.35,1.4,6.54,3.75,8.87  c2.36,2.33,5.53,3.62,8.82,3.57c3.57,0.19,7.08-0.98,9.84-3.28l-2.48-3.89c-1.96,1.6-4.38,2.49-6.89,2.52  c-1.71,0.15-3.4-0.38-4.72-1.49c-1.32-1.1-2.17-2.69-2.37-4.42h17.6c0-0.66,0-1.31,0-2.02c0-7.57-4.61-12.62-11.26-12.62  L145.63,202.76z M207.87,215.38c0.08-1.42,0.57-2.79,1.41-3.93c0.83-1.14,1.98-2.01,3.29-2.5s2.74-0.57,4.1-0.25  c1.36,0.33,2.6,1.05,3.56,2.08s1.61,2.33,1.85,3.73s0.09,2.84-0.46,4.15s-1.46,2.43-2.63,3.21c-1.16,0.79-2.53,1.21-3.93,1.22  c-0.98,0.01-1.96-0.18-2.86-0.57s-1.72-0.96-2.4-1.69s-1.2-1.59-1.53-2.53C207.94,217.38,207.81,216.38,207.87,215.38z   M227.06,215.38v-12.02h-5.16v2.93c-0.88-1.15-2.01-2.07-3.3-2.68c-1.29-0.61-2.71-0.91-4.14-0.85c-3.29,0-6.44,1.33-8.77,3.7  c-2.32,2.37-3.63,5.58-3.63,8.93c0,3.35,1.31,6.56,3.63,8.93c2.33,2.37,5.48,3.7,8.77,3.7c1.43,0.05,2.84-0.24,4.14-0.85  c1.29-0.61,2.42-1.53,3.3-2.68v2.93h5.16V215.38z M178.76,215.38c-0.06,1.7,0.23,3.39,0.84,4.96s1.55,3,2.74,4.19  s2.61,2.11,4.17,2.71c1.56,0.6,3.23,0.86,4.89,0.76c3.1,0.16,6.14-0.87,8.53-2.88l-2.48-4.24c-1.78,1.38-3.96,2.15-6.2,2.17  c-1.91-0.16-3.69-1.04-4.98-2.47c-1.3-1.43-2.02-3.31-2.02-5.26s0.72-3.82,2.02-5.25s3.08-2.31,4.98-2.47  c2.24,0.03,4.42,0.79,6.2,2.17l2.48-4.24c-2.39-2.01-5.43-3.04-8.53-2.88c-1.66-0.1-3.33,0.16-4.89,0.76s-2.98,1.52-4.17,2.71  s-2.12,2.62-2.74,4.19s-0.9,3.27-0.84,4.96V215.38z M245.21,202.76c-1.26-0.04-2.5,0.27-3.6,0.89s-2.01,1.53-2.65,2.64v-2.93h-5.11  v24.14h5.16v-13.53c0-3.99,1.69-6.21,4.96-6.21c1.1-0.02,2.2,0.19,3.22,0.61l1.59-5.05c-1.18-0.43-2.42-0.65-3.67-0.66  L245.21,202.76z M107.08,205.29c-2.92-1.77-6.28-2.64-9.67-2.52c-6,0-9.92,2.93-9.92,7.73c0,3.94,2.88,6.36,8.18,7.12l2.48,0.35  c2.83,0.4,4.17,1.16,4.17,2.52c0,1.87-1.88,2.93-5.41,2.93c-2.83,0.08-5.61-0.81-7.88-2.52l-2.48,4.09c3,2.14,6.6,3.23,10.27,3.13  c6.84,0,10.81-3.28,10.81-7.88c0-4.59-3.12-6.46-8.28-7.22l-2.48-0.35c-2.23-0.3-4.02-0.76-4.02-2.37s1.69-2.83,4.51-2.83  c2.61,0.03,5.17,0.74,7.44,2.07L107.08,205.29z M173.58,202.76c-1.26-0.04-2.5,0.27-3.6,0.89s-2.01,1.53-2.65,2.64v-2.93h-5.11  v24.14h5.16v-13.53c0-3.99,1.69-6.21,4.96-6.21c1.1-0.02,2.2,0.19,3.22,0.61l1.59-5.05c-1.18-0.43-2.42-0.65-3.67-0.66  L173.58,202.76z M129.59,203.37h-8.48v-7.32h-5.21v7.32h-4.71v4.8H116v11.11c0,5.6,2.13,8.94,8.23,8.94  c2.28,0.01,4.51-0.64,6.45-1.87l-1.49-4.49c-1.38,0.84-2.95,1.31-4.56,1.36c-2.48,0-3.42-1.62-3.42-4.04v-11.01h8.43L129.59,203.37z   M52.55,227.5v-15.15c0.09-1.27-0.09-2.55-0.53-3.75s-1.12-2.29-2-3.19c-0.88-0.91-1.94-1.61-3.12-2.07  c-1.17-0.46-2.42-0.66-3.68-0.58c-1.64-0.11-3.28,0.23-4.74,0.99c-1.47,0.75-2.71,1.9-3.59,3.31c-0.81-1.37-1.96-2.49-3.34-3.24  s-2.93-1.12-4.5-1.05c-1.36-0.07-2.72,0.22-3.94,0.85s-2.25,1.57-3,2.73v-2.98h-5.16v24.14h5.21v-13.28  c-0.11-0.83-0.04-1.67,0.2-2.46c0.25-0.79,0.66-1.52,1.21-2.14c0.55-0.61,1.23-1.09,1.99-1.41c0.76-0.31,1.57-0.45,2.39-0.41  c3.42,0,5.16,2.27,5.16,6.36v13.43h5.21v-13.38c-0.11-0.82-0.03-1.66,0.21-2.46c0.25-0.79,0.66-1.52,1.22-2.13  c0.55-0.61,1.23-1.09,1.99-1.41c0.76-0.32,1.57-0.46,2.39-0.42c3.52,0,5.21,2.27,5.21,6.36v13.43L52.55,227.5z"/>
<rect x="105.37" y="19.44" class="st1" width="78.11" height="142.92"/>
<path class="st2" d="M110.34,90.93c-0.01-13.77,3.05-27.36,8.95-39.74c5.91-12.38,14.5-23.24,25.14-31.74  C131.26,8.91,115.45,2.36,98.79,0.54C82.14-1.28,65.32,1.71,50.25,9.16C35.19,16.61,22.49,28.23,13.6,42.69S0,73.86,0,90.91  s4.71,33.76,13.6,48.22s21.59,26.07,36.65,33.53c15.06,7.45,31.88,10.44,48.54,8.62c16.65-1.82,32.47-8.37,45.64-18.91  c-10.63-8.5-19.23-19.35-25.13-31.72C113.39,118.27,110.32,104.69,110.34,90.93z"/>
<path class="st3" d="M288.86,90.92c0,17.05-4.71,33.77-13.6,48.22s-21.59,26.08-36.66,33.53s-31.89,10.44-48.54,8.62  s-32.47-8.38-45.64-18.92c10.63-8.5,19.22-19.36,25.13-31.74s8.98-25.96,8.98-39.73s-3.07-27.35-8.98-39.73s-14.5-23.23-25.13-31.73  C157.59,8.9,173.4,2.34,190.06,0.52c16.65-1.82,33.48,1.17,48.54,8.62c15.07,7.45,27.77,19.07,36.66,33.53s13.6,31.17,13.6,48.22  L288.86,90.92L288.86,90.92z"/>
<path class="st3" d="M286.07,147.22v-3.53h-0.89l-1.04,2.52l-1.04-2.52h-0.79v3.53h0.64v-2.65l0.97,2.3h0.67l0.97-2.3v2.68  L286.07,147.22z M280.34,147.22v-2.93h1.17v-0.61h-2.95v0.61h1.26v2.93H280.34z"/>
</svg>